# xmcd
#
# Track frame offsets:
#	150
#	13934
#	33010
#	50780
#	69002
#	85541
#	101217
#	115008
#	134122
#	151920
#	170153
#	186675
#
# Disc length: 2698 seconds
#
# Revision: 0
# Processed by: cddbd v1.5.2PL0 Copyright (c) Steve Scherf et al.
# Submitted via: audiograbber 1.83.01
#
DISCID=a40a880c
DTITLE=Various Artist - CB20412
DYEAR=1900
DGENRE=Country
TTITLE0=Wild Horses  - You Gotto Ride (Vocal)
TTITLE1=LeAnne Rimes - Suddenly (Vocal)
TTITLE2=Kellie Coffey - Whatever It Takes (Vocal)
TTITLE3=Jo Dee Messina - A Joyful Noise (Vocal)
TTITLE4=Amy Dalley - Love's Got Attitude (Vocal)
TTITLE5=Martina McBride - Strangers (Vocal)
TTITLE6=Wild Horses  - You Gotto Ride
TTITLE7=LeAnne Rimes - Suddenly 
TTITLE8=Kellie Coffey - Whatever It Takes
TTITLE9=Jo Dee Messina - A Joyful Noise
TTITLE10=Amy Dalley - Love's Got Attitude 
TTITLE11=Martina McBride - Strangers 
EXTD=
EXTT0=
EXTT1=
EXTT2=
EXTT3=
EXTT4=
EXTT5=
EXTT6=
EXTT7=
EXTT8=
EXTT9=
EXTT10=
EXTT11=
PLAYORDER=
